<?xml version="1.0" encoding="UTF-8" standalone="no"?><svg height="660" viewBox="-300 -300 600 660" width="600" xmlns="http://www.w3.org/2000/svg" xmlns:xlink="http://www.w3.org/1999/xlink"><radialGradient id="a" cx="-80" cy="-80" gradientUnits="userSpaceOnUse" r="405"><stop offset="0" stop-color="#fff" stop-opacity=".31"/><stop offset=".19" stop-color="#fff" stop-opacity=".25"/><stop offset=".6" stop-color="#6b6b6b" stop-opacity=".125"/><stop offset="1" stop-opacity=".125"/></radialGradient><path d="m-298.5-298.50003h597v258.543296c0 286.247934-298.5 398.456734-298.5 398.456734s-298.5-112.2088-298.5-398.456734z" fill="#2b5df2"/><path d="m-298.5-298.50015v258.795942c0 285.716328 298.5 398.101418 298.5 398.101418s298.5-112.38509 298.5-398.101418v-258.795942zm390.6 550.31666c-7.603952 5.69905-16.5 8.40637-25.3 8.40637-9 0-18-2.9022-25.4-8.40637.5 2.70205.8 5.40409.8 8.10614 0 11.20849-4.5 22.11675-12.4 30.02273-7.9 7.90599-18.8 12.4094-30 12.4094s-22.1-4.50341-30-12.4094c-7.9-7.90598-12.4-18.81424-12.4-30.02273 0-2.80212.3-5.50417.8-8.20621-7.4 5.60424-16.4 8.40636-25.4 8.40636-8.8 0-17.680236-2.72847-25.3-8.40636-15.4803-11.5352-20.8-31.62395-14.4-48.83698-16.5 8.40637-37.19793 5.30211-50.4-9.00682-13.29793-14.41282-14.7-35.62697-4.7-51.43894-18.3 4.90371-38.16655-3.02098-47.8-20.21531-9.76658-17.43194-5.9-38.8294 8.1-51.839251-19.2 0-36.5888-13.212645-41.2-32.724776-4.5888-19.41735 5-38.8293989 22-47.5359908-17.8-5.0037892-30.8-21.4162152-30.8-40.8309142 0-18.113715 11.3-33.525383 27.2-39.630005-15.9-6.104622-27.2-21.516293-27.2-39.630003 0-18.41394 11.8-34.12584 28.2-39.93023-5.8-2.10159-11.2-5.50417-15.6-9.9075-8-8.00607-12.6-19.11448-12.6-30.42304s4.6-22.41697 12.6-30.42303 19.1-12.60955 30.4-12.60955 22.4 4.60349 30.4 12.60955c5.6 5.60424 9.5 12.70962 11.4 20.31538 1.9-7.40561 5.8-14.21076 11.2-19.71493 8-8.00606 19.1-12.60954 30.4-12.60954s22.4 4.60348 30.4 12.60954c5.5 5.50417 9.4 12.50947 11.3 20.01516 1.9-7.50569 5.8-14.51099 11.3-20.01516 8-8.00606 19.1-12.60954 30.4-12.60954s22.6 4.50341 30.6 12.50947c5.5 5.50416 9.4 12.50947 11.3 20.01515 1.9-7.50568 5.8-14.51099 11.3-20.01515 8-8.00606 19.1-12.60955 30.4-12.60955s22.4 4.60349 30.4 12.60955c5.5 5.50416 9.4 12.50947 11.3 20.01515 1.9-7.50568 5.8-14.51099 11.3-20.01515 8-8.00606 19.1-12.60955 30.4-12.60955s22.4 4.60349 30.4 12.60955c5.5 5.50416 9.4 12.50947 11.3 20.01515 1.9-7.50568 5.8-14.51099 11.3-20.01515 8-8.00606 19.1-12.60955 30.4-12.60955s22.4 4.60349 30.4 12.60955 12.6 19.11447 12.6 30.42303-4.6 22.41697-12.6 30.42304c-4.2 4.20318-9.3 7.50568-14.7 9.60727 15.9 6.10462 27.3 21.51629 27.3 39.73008 0 18.11371-11.3 33.525381-27.2 39.630003 15.9 6.104622 27.2 21.51629 27.2 39.630005 0 19.414699-13 35.827125-30.9 40.8309142 17 8.7065919 26.5888 28.1186408 22 47.5359908-4.6112 19.512131-22 32.624701-41.2 32.724776 14 13.009851 17.90483 34.428791 8.1 51.839251-9.69517 17.21575-29.6 25.11902-47.9 20.21531 10 15.81197 8.59793 37.02612-4.7 51.43894-13.20207 14.30893-33.9 17.41319-50.4 9.00682 6.5 17.21303 1.09605 37.32299-14.4 48.93705z" fill="#e20909"/><path d="m92.1 251.81651c-7.603952 5.69905-16.5 8.40637-25.3 8.40637-9 0-18-2.9022-25.4-8.40637.5 2.70205.8 5.40409.8 8.10614 0 11.20849-4.5 22.11675-12.4 30.02273-7.9 7.90599-18.8 12.4094-30 12.4094s-22.1-4.50341-30-12.4094c-7.9-7.90598-12.4-18.81424-12.4-30.02273 0-2.80212.3-5.50417.8-8.20621-7.4 5.60424-16.4 8.40636-25.4 8.40636-8.8 0-17.680236-2.72847-25.3-8.40636-15.4803-11.5352-20.8-31.62395-14.4-48.83698-16.5 8.40637-37.19793 5.30211-50.4-9.00682-13.29793-14.41282-14.7-35.62697-4.7-51.43894-18.3 4.90371-38.16655-3.02098-47.8-20.21531-9.76658-17.43194-5.9-38.8294 8.1-51.839251-19.2 0-36.5888-13.212645-41.2-32.724776-4.5888-19.41735 5-38.8293989 22-47.5359908-17.8-5.0037892-30.8-21.4162152-30.8-40.8309142 0-18.113715 11.3-33.525383 27.2-39.630005-15.9-6.104622-27.2-21.516293-27.2-39.630003 0-18.41394 11.8-34.12584 28.2-39.93023-5.8-2.10159-11.2-5.50417-15.6-9.9075-8-8.00607-12.6-19.11448-12.6-30.42304s4.6-22.41697 12.6-30.42303 19.1-12.60955 30.4-12.60955 22.4 4.60349 30.4 12.60955c5.6 5.60424 9.5 12.70962 11.4 20.31538 1.9-7.40561 5.8-14.21076 11.2-19.71493 8-8.00606 19.1-12.60954 30.4-12.60954s22.4 4.60348 30.4 12.60954c5.5 5.50417 9.4 12.50947 11.3 20.01516 1.9-7.50569 5.8-14.51099 11.3-20.01516 8-8.00606 19.1-12.60954 30.4-12.60954s22.6 4.50341 30.6 12.50947c5.5 5.50416 9.4 12.50947 11.3 20.01515 1.9-7.50568 5.8-14.51099 11.3-20.01515 8-8.00606 19.1-12.60955 30.4-12.60955s22.4 4.60349 30.4 12.60955c5.5 5.50416 9.4 12.50947 11.3 20.01515 1.9-7.50568 5.8-14.51099 11.3-20.01515 8-8.00606 19.1-12.60955 30.4-12.60955s22.4 4.60349 30.4 12.60955c5.5 5.50416 9.4 12.50947 11.3 20.01515 1.9-7.50568 5.8-14.51099 11.3-20.01515 8-8.00606 19.1-12.60955 30.4-12.60955s22.4 4.60349 30.4 12.60955 12.6 19.11447 12.6 30.42303-4.6 22.41697-12.6 30.42304c-4.2 4.20318-9.3 7.50568-14.7 9.60727 15.9 6.10462 27.3 21.51629 27.3 39.73008 0 18.11371-11.3 33.525381-27.2 39.630003 15.9 6.104622 27.2 21.51629 27.2 39.630005 0 19.414699-13 35.827125-30.9 40.8309142 17 8.7065919 26.5888 28.1186408 22 47.5359908-4.6112 19.512131-22 32.624701-41.2 32.724776 14 13.009851 17.90483 34.428791 8.1 51.839251-9.69517 17.21575-29.6 25.11902-47.9 20.21531 10 15.81197 8.59793 37.02612-4.7 51.43894-13.20207 14.30893-33.9 17.41319-50.4 9.00682 6.5 17.21303 1.09605 37.32299-14.4 48.93705z" fill="none" stroke="#000" stroke-miterlimit="10" stroke-width="3"/><g id="b" fill="#fcef3c" stroke="#000" stroke-width="1.053595" transform="matrix(.78276334 0 0 .78233601 -233.15666 -232.26862)"><path d="m29.738807 62.945549c-2.689943 6.351213-6.015432 8.922247-9.243665 12.043068 3.618431.01652 7.225043-.678341 10.962762-3.813951.06366 9.674934 1.458013 12.982212 4.819106 16.232778 3.322963-3.148967 4.858497-6.547149 4.847287-16.232778 3.737718 3.135613 7.334938 3.830472 10.953368 3.813951-3.227999-3.120592-6.544434-5.692883-9.234271-12.043068z" fill-rule="evenodd" stroke-width="1.053595" transform="matrix(3.63924 0 0 3.63798 16.977263 29.936885)"/><path d="m126.28125 7.9375c-34.941678 37.094566-47.103317 79.1761-20.625 133.34375 7.66385 15.67821 11.33844 33.04455 10.3125 52.25h20.625c-1.02594-19.20545 2.64865-36.57178 10.3125-52.25 26.47833-54.167642 14.31668-96.249184-20.625-133.34375z" fill-rule="evenodd" stroke-width="3.504892" transform="matrix(1.09398 0 0 1.0936 10.869411 29.936885)"/><path d="m52.25 100c-35.235309.84534-58.7273133 60.01799 15.21875 88.875-24.439711-47.87444 20.895745-30.13204 26.875 4.65625h17.53125c-9.67933-70.66082-37.052039-94.072804-59.625-93.53125zm146.71875 0c-22.30142.41761-48.7644 24.28444-58.25 93.53125h17.5c5.97956-34.78829 51.34596-52.53069 26.90625-4.65625 74.89409-29.22698 49.82147-89.548704 13.84375-88.875z" fill-rule="evenodd" stroke-width="3.504892" transform="matrix(1.09398 0 0 1.0936 10.869411 29.936885)"/><path d="m21.706974 58.178268h29.158859v4.771534h-29.158859z" stroke-width="1.053595" transform="matrix(3.63924 0 0 3.63798 16.977263 29.936885)"/></g><use fill="#fcef3c" height="100%" stroke="#000" stroke-width="3.864386" transform="translate(233)" width="100%" xlink:href="#b"/><use fill="#fcef3c" height="100%" stroke="#000" stroke-width="3.864386" transform="translate(116.5 198)" width="100%" xlink:href="#b"/><path d="m-298.5-298.50003h597v258.543296c0 286.247934-298.5 398.456734-298.5 398.456734s-298.5-112.2088-298.5-398.456734z" fill="url(#a)"/><path d="m-298.5-298.50001h597v258.502973c0 286.203287-298.5 398.394577-298.5 398.394577s-298.5-112.19129-298.5-398.394577z" fill="none" stroke="#000" stroke-width="3"/></svg>